<?xml version="1.0" encoding="UTF-8"?>
<svg width="127px" height="26px" viewBox="0 0 127 26" version="1.1" xmlns="http://www.w3.org/2000/svg" xmlns:xlink="http://www.w3.org/1999/xlink">
    <!-- Generator: Sketch 43.2 (39069) - http://www.bohemiancoding.com/sketch -->
    <title>Osteria.</title>
    <desc>Created with Sketch.</desc>
    <defs></defs>
    <g id="Page-1" stroke="none" stroke-width="1" fill="none" fill-rule="evenodd">
        <path d="M5.04079322,4.89677055 C5.76091013,4.89677055 6.12096319,5.25682361 6.12096319,5.97694053 C6.12096319,6.55303406 5.76091013,6.91308712 5.04079322,7.0571105 C4.05663343,7.24914168 3.33052643,7.93924337 2.86245043,9.12743629 C2.39437444,10.3156292 2.16033995,11.6838308 2.16033995,13.2320822 C2.16033995,14.7803336 2.72442307,16.1185308 3.85260624,17.2467139 C4.98078941,18.3748971 6.39699811,18.9389802 8.10127481,18.9389802 C9.80555152,18.9389802 11.4017867,18.1888697 12.8900284,16.6886261 C14.37827,15.1883825 15.1223796,13.5381394 15.1223796,11.7378471 C15.1223796,9.6255041 14.7983319,7.58520344 14.1502267,5.61688387 C13.8141721,4.60872019 13.3220996,3.78059815 12.6739944,3.13249293 C12.0258891,2.4843877 11.1977671,2.16033995 10.1896034,2.16033995 C9.18143975,2.16033995 8.36531948,2.34036648 7.74121815,2.70042494 C7.11711683,3.0604834 6.69705492,3.24050992 6.48101985,3.24050992 C5.76090293,3.24050992 5.40084987,2.88045687 5.40084987,2.16033995 C5.40084987,1.77627759 5.76090293,1.36821746 6.48101985,0.936147312 C6.86508221,0.696108339 7.45316887,0.480076505 8.24529748,0.288045327 C9.03742608,0.0960141487 9.76953397,0 10.4416431,0 C11.6658419,0 12.746001,0.360053058 13.682153,1.08016997 C14.5943011,1.80028689 15.3024055,2.76042838 15.8064873,3.96062324 C16.7906471,6.28900127 17.2827196,8.88138329 17.2827196,11.7378471 C17.2827196,14.1382368 16.3225781,16.2985551 14.4022663,18.2188669 C12.4819546,20.1391787 10.381645,21.0993202 8.10127481,21.0993202 C5.82090457,21.0993202 3.9006216,20.3192052 2.34036828,18.7589519 C0.780114958,17.1986986 0,15.2724147 0,12.9800425 C0,10.6876703 0.444065438,8.83939798 1.33220964,7.43516999 C2.22035383,6.03094201 3.27650947,5.20882086 4.50070823,4.96878188 C4.7407472,4.92077409 4.92077373,4.89677055 5.04079322,4.89677055 Z M43.9269123,16.4185836 L44.2149576,18.0388386 C44.2629654,18.2788776 44.286969,18.4589041 44.286969,18.5789236 C44.286969,19.2990405 43.9269159,19.6590935 43.206799,19.6590935 C42.6307055,19.6590935 42.2706524,19.2990405 42.126629,18.5789236 C42.0786212,18.3868924 41.8865929,17.4867597 41.5505384,15.8784986 C41.2144838,14.2702375 40.8124246,12.3619563 40.3443486,10.1535978 C39.8762726,7.94523922 39.5222204,6.27699338 39.2821814,5.14881021 C39.0421424,4.02062704 38.8201097,3.24051209 38.6160766,2.80844193 C38.4120435,2.37637178 38.1420037,2.16033995 37.8059491,2.16033995 C36.7737815,2.16033995 35.7536312,3.1744894 34.7454675,5.20281871 C33.7373038,7.23114803 32.8611747,9.68550971 32.1170539,12.5659774 C33.1252176,13.118067 33.9053326,14.0302014 34.4574222,15.302408 C35.0095118,16.5746145 35.2855525,17.9068108 35.2855525,19.2990369 C35.2855525,23.3796994 34.2053933,25.4200001 32.0450426,25.4200001 C30.9888711,25.4200001 30.1847526,24.903924 29.632663,23.8717564 C29.0805733,22.8395889 28.8045327,21.5614005 28.8045327,20.037153 C28.8045327,18.5129056 29.0325663,16.6106252 29.4886403,14.330255 C27.7363558,14.6183018 25.131972,16.0345105 21.6754108,18.5789236 C20.93129,19.1310132 20.307198,19.5090689 19.8031162,19.713102 C19.2990344,19.9171352 18.9149778,20.0191502 18.6509349,20.0191502 C17.930818,20.0191502 17.5707649,19.6590971 17.5707649,18.9389802 C17.5707649,18.4829062 17.8948127,18.128854 18.5429179,17.8768131 C19.1910231,17.6247722 19.9651372,17.168705 20.8652833,16.5085978 C21.7654295,15.8484906 22.5275418,15.2964093 23.1516431,14.8523372 C23.7757445,14.4082651 24.8018957,13.8501828 26.2301276,13.1780737 C27.6583594,12.5059646 28.9125443,12.1459115 29.9927196,12.0979037 C32.0570548,4.03259425 34.6614386,0 37.8059491,0 C39.0301479,0 39.906277,0.528077818 40.4343627,1.5842493 C40.7944212,2.30436621 41.1064672,3.27650947 41.37051,4.50070823 L43.3508217,13.9701983 C44.2389659,13.4901204 45.4991516,13.0580567 47.1314166,12.6739944 C48.7636816,12.289932 49.9578576,12.0979037 50.7139803,12.0979037 C51.4701031,12.0979037 51.8481588,12.4579568 51.8481588,13.1780737 C51.8481588,13.8501828 51.4881057,14.1862323 50.7679888,14.1862323 C50.1678914,14.1862323 48.8777013,14.4442704 46.8973797,14.9603542 C44.9170582,15.4764379 43.9269123,15.9625096 43.9269123,16.4185836 Z M31.6129746,14.87034 C31.1809044,17.0066868 30.9648726,18.7229398 30.9648726,20.0191502 C30.9648726,22.179501 31.3249257,23.2596601 32.0450426,23.2596601 C32.7651595,23.2596601 33.1252126,21.9394656 33.1252126,19.2990369 C33.1252126,18.5309122 32.9931931,17.7147919 32.7291502,16.8506516 C32.4651074,15.9865113 32.0930525,15.326414 31.6129746,14.87034 Z M55.6647594,19.0109916 C55.6407555,19.0109916 55.4607289,19.1070057 55.1246744,19.2990369 C54.2605341,19.7791148 53.6244404,20.0191502 53.2163741,20.0191502 C52.4962572,20.0191502 52.1362041,19.6590971 52.1362041,18.9389802 C52.1362041,18.4829062 52.4962572,18.1108514 53.2163741,17.8228046 C53.3363936,17.7747968 53.624436,17.6307756 54.0805101,17.3907366 C54.5365841,17.1506976 54.800623,17.0066764 54.8726347,16.9586686 C54.7766191,16.7426335 54.7286121,16.4185858 54.7286121,15.9865156 C54.7286121,13.8261649 55.4847235,11.9778925 56.996969,10.4416431 C58.5092145,8.90539367 59.8894179,8.13728048 61.1376206,8.13728048 C62.3858232,8.13728048 63.3699683,8.43132381 64.0900852,9.01941929 C64.8102021,9.60751477 65.1702552,10.3156191 65.1702552,11.1437536 C65.1702552,11.971888 64.9782269,12.6859933 64.5941645,13.2860907 C64.2101021,13.8861881 63.6100137,14.4742748 62.7938812,15.0503683 C61.665698,15.8665008 60.0214557,16.8146405 57.861105,17.8948159 C58.8212609,18.5909289 60.1534572,18.9389802 61.8577339,18.9389802 C63.5620106,18.9389802 65.2422582,18.6629395 66.8985271,18.1108499 C67.402609,17.9428226 67.6906514,17.8588103 67.7626631,17.8588103 C68.48278,17.8588103 68.8428331,18.2188633 68.8428331,18.9389802 C68.8428331,19.467066 68.48278,19.8511226 67.7626631,20.0911615 C65.7463357,20.7632707 63.8020492,21.0993202 61.9297452,21.0993202 C59.2653126,21.0993202 57.1770049,20.4032176 55.6647594,19.0109916 Z M56.888952,15.9865156 C60.9696145,13.9461844 63.0099152,12.409958 63.0099152,11.3777904 C63.0099152,10.6576735 62.4098268,10.2976204 61.2096319,10.2976204 C60.489515,10.2976204 59.5893824,10.8677044 58.509207,12.0078896 C57.4290316,13.1480747 56.888952,14.4742701 56.888952,15.9865156 Z M74.1716716,11.3777904 L74.5317283,12.818017 C74.5317283,13.538134 74.1716752,13.898187 73.4515583,13.898187 C73.1395076,13.898187 72.8214608,13.6461499 72.4974081,13.142068 C72.1733555,12.6379862 72.0113317,12.0498995 72.0113317,11.3777904 C72.0113317,10.2015994 72.7314378,9.32547033 74.1716716,8.7493768 C75.1798353,8.34131054 76.2179883,8.13728048 77.2861617,8.13728048 C78.3543351,8.13728048 79.1824572,8.43132381 79.7705526,9.01941929 C80.3586481,9.60751477 80.6526915,10.4836439 80.6526915,11.6478329 C80.6526915,12.8120219 80.7607074,14.000197 80.9767425,15.2123938 C81.1927775,16.4245906 81.4448147,17.3487268 81.7328614,17.9848301 C82.0209082,18.6209334 82.2849471,18.9389802 82.5249861,18.9389802 C83.1010796,18.9389802 83.8631919,18.7649546 84.8113459,18.4168981 C85.7594998,18.0688416 86.629628,17.4987576 87.4217566,16.7066289 C87.5417761,16.5866095 87.9258327,16.1905511 88.5739379,15.518442 C89.2220432,14.8463329 89.7261174,14.3422586 90.0861759,14.006204 C90.4222305,13.6701494 90.8782977,13.2620893 91.4543912,12.7820114 C92.5585705,11.8458594 93.5007093,11.3777904 94.280836,11.3777904 C95.0609626,11.3777904 95.7030573,11.6238267 96.2071391,12.1159066 C96.7112209,12.6079864 97.0832758,13.202074 97.3233147,13.898187 C97.5393498,14.6183039 97.7433799,15.33841 97.9354111,16.058527 C98.3674812,17.7628037 98.847552,18.6029275 99.3756377,18.5789236 C99.8317117,18.5789236 100.419798,18.4589059 101.139915,18.2188669 C101.860032,17.9788279 102.256091,17.8588103 102.328102,17.8588103 C103.048219,17.8588103 103.408272,18.2188633 103.408272,18.9389802 C103.408272,19.467066 103.048219,19.8511226 102.328102,20.0911615 C101.031892,20.5232317 100.029744,20.7392635 99.3216292,20.7392635 C98.6135142,20.7392635 98.0074249,20.4932273 97.5033431,20.0011474 C96.9992612,19.5090675 96.6272064,18.9149799 96.3871674,18.2188669 C96.1711324,17.49875 95.9671023,16.7786439 95.7750711,16.058527 C95.343001,14.3782542 94.874932,13.5381304 94.3708501,13.5381304 C93.8667683,13.5381304 92.0545012,15.0983603 88.9339946,18.2188669 C88.0698543,19.0830072 87.0377022,19.7791098 85.8375073,20.3071955 C84.6373125,20.8352813 83.5331498,21.0993202 82.5249861,21.0993202 C81.2767834,21.0993202 80.2926384,20.1811849 79.5725215,18.3448867 C78.8524046,16.5085886 78.4923515,14.1862464 78.4923515,11.3777904 C78.4923515,10.6576735 78.1443002,10.2976204 77.4481872,10.2976204 C76.8960976,10.2976204 76.2119968,10.3996355 75.3958642,10.6036686 C74.5797317,10.8077017 74.1716716,11.0657397 74.1716716,11.3777904 Z M95.4150145,3.24050992 C95.7990768,3.24050992 96.1951352,3.41453557 96.6032014,3.76259208 C97.0112677,4.11064859 97.2152977,4.47070165 97.2152977,4.84276205 C97.2152977,5.21482246 97.0652756,5.49686402 96.7652269,5.6888952 C96.4651782,5.88092638 96.1231278,5.97694053 95.7390654,5.97694053 C95.3550031,5.97694053 95.0249545,5.80291488 94.7489096,5.45485837 C94.4728648,5.10680186 94.3348445,4.72874615 94.3348445,4.3206799 C94.3348445,3.60056298 94.6948975,3.24050992 95.4150145,3.24050992 Z M118.458641,18.1468556 L119.610822,17.8588103 C120.330939,17.8588103 120.690992,18.2188633 120.690992,18.9389802 C120.690992,19.467066 120.330939,19.8511226 119.610822,20.0911615 C119.178752,20.2351849 118.752689,20.3071955 118.332621,20.3071955 C117.912553,20.3071955 117.510493,20.2111814 117.126431,20.0191502 C116.742369,19.827119 116.442324,19.5390766 116.226289,19.1550142 C115.866231,18.5309129 115.602192,17.8588139 115.434165,17.1386969 L115.290142,16.5266006 C114.882076,17.2227136 113.89193,18.0388339 112.319675,18.9749859 C110.747419,19.9111379 109.073173,20.3792069 107.296884,20.3792069 C106.336728,20.3792069 105.496604,20.0191538 104.776488,19.2990369 C104.056371,18.57892 103.696318,17.7387962 103.696318,16.7786403 C103.696318,14.4502622 104.656459,12.4279642 106.576771,10.7116856 C108.497083,8.99540693 110.441369,8.13728048 112.409689,8.13728048 C113.489864,8.13728048 114.420001,8.33530966 115.200128,8.73137396 C115.980254,9.12743827 116.370312,9.52949752 116.370312,9.93756377 C116.370312,10.6576807 116.010259,11.0177337 115.290142,11.0177337 C115.146119,11.0177337 114.798067,10.8977161 114.245978,10.6576771 C113.693888,10.4176381 113.081798,10.2976204 112.409689,10.2976204 C111.113478,10.2976204 109.69727,10.9277133 108.16102,12.1879179 C106.624771,13.4481225 105.856658,14.978348 105.856658,16.7786403 C105.856658,17.1386987 106.00668,17.4687474 106.306728,17.7687961 C106.606777,18.0688448 106.936826,18.2188669 107.296884,18.2188669 C108.713114,18.2188669 110.033309,17.8408112 111.257507,17.0846884 C112.481706,16.3285657 113.261821,15.7044737 113.597876,15.2123938 C113.93393,14.7203139 114.209971,14.2702476 114.426006,13.8621813 C114.642041,13.4541151 114.804065,13.1840753 114.912082,13.0520539 C115.0201,12.9200324 115.254135,12.8540227 115.614193,12.8540227 C115.974251,12.8540227 116.250292,12.9860422 116.442323,13.250085 C116.634354,13.5141279 116.814381,13.9281889 116.982408,14.4922805 C117.150436,15.0563721 117.31846,15.6864649 117.486488,16.382578 C117.654515,17.078691 117.804537,17.5467599 117.936558,17.7867989 C118.06858,18.0268379 118.242606,18.1468556 118.458641,18.1468556 Z M124.93966,18.3628896 C125.323723,18.3628896 125.719781,18.5309143 126.127847,18.8669689 C126.535914,19.2030235 126.739944,19.5630765 126.739944,19.9471389 C126.739944,20.3312012 126.57792,20.6192437 126.253867,20.8112748 C125.929815,21.003306 125.575762,21.0993202 125.1917,21.0993202 C124.807638,21.0993202 124.489591,20.9252945 124.23755,20.577238 C123.985509,20.2291815 123.85949,19.8511258 123.85949,19.4430595 C123.85949,18.7229426 124.219544,18.3628896 124.93966,18.3628896 Z" id="Osteria." fill="#FFFFFF"></path>
    </g>
</svg>