<?xml version="1.0" encoding="UTF-8"?>
<svg id="Layer_1" data-name="Layer 1" xmlns="http://www.w3.org/2000/svg" version="1.1" viewBox="0 0 125.6 75.1">
  <defs>
    <style>
      .cls-1 {
        fill: #000;
        stroke-width: 0px;
      }
    </style>
  </defs>
  <path class="cls-1" d="M18.4,39.9c-1.1,0-2.2-.2-3.2-.7-1.3-.6-2.3-1.4-3-2.5-.7-1.1-1.2-2.5-1.3-4.1,0-1.6.2-3.4.9-5.5.7-2,1.8-4,3.3-6-1.3-1.2-2.3-2.6-2.9-4.3-.6-1.8-.8-3.7-.4-5.6.4-1.9,1.3-3.7,2.7-5.2,1.6-1.8,3.6-3,6-3.7,2.4-.6,5-.7,7.8,0,2,.4,3.8,1.3,5.3,2.5,1.5,1.2,2.6,2.8,3.5,4.6.9,2,1.3,4.2,1.2,6.6,0,2.4-.6,4.7-1.5,7.1,1.7-.3,3.5-.6,5.2-1.1,1.8-.4,3.5-.9,5.2-1.4.3-.1.5,0,.7.3,0,.1,0,.3,0,.4,0,.1-.2.2-.3.2-1.8.6-3.7,1.1-5.6,1.5-1.9.4-3.8.8-5.6,1.1l-.9,1.6c-1.3,2.2-2.7,4.2-4.1,5.9-1.4,1.7-2.8,3.2-4.3,4.4-1.4,1.2-2.9,2.1-4.3,2.7-1.4.6-2.8,1-4.2,1ZM15.8,21.8c-1.4,1.9-2.5,3.8-3.1,5.7-.6,1.9-.9,3.6-.8,5.1,0,1.4.4,2.6,1.1,3.5.6,1,1.5,1.7,2.6,2.2,1,.4,2.3.6,3.7.5,1.4-.1,2.9-.7,4.6-1.6,1.6-1,3.4-2.4,5.2-4.3,1.8-1.9,3.6-4.4,5.4-7.5l.5-.9c-2.4.3-4.6.5-6.6.6-2.1,0-3.8,0-5.4-.3-2.9-.5-5.3-1.5-7.2-2.9ZM16.4,21c1.7,1.3,4,2.2,6.7,2.7,1.5.2,3.3.3,5.5.2,2.1,0,4.4-.3,6.8-.6,1-2.3,1.6-4.6,1.7-7,.1-2.4-.3-4.5-1.1-6.5-1.5-3.5-4.2-5.7-8.1-6.6-2.6-.6-5-.6-7.2,0-2.2.6-4.1,1.7-5.6,3.4-1.2,1.4-2,3-2.4,4.7-.4,1.7-.3,3.4.3,5.1.5,1.5,1.4,2.8,2.6,3.9.9-1,1.8-2,2.9-2.9,1.1-.9,2.3-1.8,3.6-2.6.1,0,.2,0,.4,0,.1,0,.2.1.3.2,0,.1.1.2,0,.4,0,.1-.1.2-.2.3-1.3.8-2.5,1.6-3.5,2.5-1,.9-2,1.8-2.8,2.8Z"/>
  <path class="cls-1" d="M75.3,12.4s-.3,0-.7-.2c-.4-.1-1-.2-1.7-.4-.7-.1-1.6-.3-2.5-.4-1-.2-2-.3-3.2-.5-1.1,1.8-2.3,4-3.6,6.4-1.4,2.4-2.7,5-4.1,7.7-1.4,2.7-2.7,5.4-4,8.2-1.3,2.8-2.4,5.5-3.4,8.1,0,.2-.2.4-.4.4s-.1,0-.2,0c-.3,0-.4-.3-.3-.6.8-2.2,1.7-4.5,2.8-6.9,1.1-2.4,2.2-4.7,3.3-7,1.2-2.3,2.3-4.6,3.5-6.8,1.2-2.2,2.3-4.2,3.4-6.1-.8.7-1.7,1.5-2.7,2.3-1,.8-2.1,1.6-3.2,2.4-1.1.8-2.2,1.6-3.4,2.5-1.2.8-2.3,1.6-3.5,2.4-1,.7-1.9,1.4-2.9,2s-1.8,1.3-2.6,1.9c0,.4-.1.8-.2,1.2,0,.4-.2.7-.4,1.1-.6,1.1-1.3,2-2.2,2.7-.9.7-1.6,1-2.2,1s-.8-.2-.9-.5c-.3-.5,0-1.3.7-2.3.3-.4.9-.9,1.6-1.6.7-.6,1.6-1.3,2.7-2.1,0-.1,0-.2,0-.3,0-.1,0-.2,0-.3,0-.7.2-1.4.3-2.2s.4-1.5.7-2.2c.4-.7.9-1.4,1.6-2,.7-.6,1.7-1.2,2.9-1.6.3-.1.5,0,.7.3,0,.3,0,.5-.3.7-1,.4-1.9.8-2.5,1.3-.6.5-1.1,1.1-1.4,1.7-.3.6-.6,1.3-.7,1.9-.1.7-.2,1.3-.3,2,.7-.5,1.5-1.1,2.3-1.7.8-.6,1.6-1.2,2.5-1.7,1.4-1,2.9-2.1,4.5-3.2,1.5-1.1,3-2.2,4.4-3.3,1.4-1.1,2.7-2.1,3.8-3.1,1.1-1,2-1.9,2.6-2.7-1.4-.2-2.8-.3-4.3-.4-1.5-.1-3-.2-4.5-.2s-2.9,0-4.3.2c-1.4.1-2.7.3-3.9.7-1.2.3-2.2.8-3.1,1.3-.9.6-1.5,1.3-2,2.1,0,.2-.2.3-.4.3s0,0,0,0c0,0,0,0-.1,0-.1,0-.2-.2-.2-.3,0-.1,0-.3,0-.4.5-.9,1.2-1.7,2.2-2.3,1-.6,2.1-1.1,3.3-1.5,1.3-.4,2.6-.6,4.1-.8,1.5-.1,3-.2,4.6-.2,1.6,0,3.2,0,4.7.2,1.6.1,3.1.3,4.5.5,1-1.7,1.8-3,2.4-3.9.6-.9.9-1.4,1-1.5,0-.1.2-.2.3-.2.1,0,.3,0,.4,0,.1,0,.2.2.2.3s0,.3,0,.4c0,0-.3.5-.9,1.4-.5.9-1.3,2.1-2.2,3.7,1.1.1,2,.3,2.9.5s1.7.3,2.4.4c.7.1,1.2.2,1.6.3.4,0,.7.1.8.2.1,0,.3,0,.3.2,0,.1,0,.2,0,.4,0,.3-.3.5-.6.4ZM44.5,29.6c0-.1.1-.3.2-.4,0-.1.1-.3.1-.5-.8.6-1.4,1.1-2,1.6-.6.5-1,.9-1.2,1.2-.2.2-.3.4-.4.6,0,.2-.1.3-.2.4,0,.1,0,.2,0,.3,0,0,.2,0,.5-.1.3-.1.5-.3.9-.5.3-.3.7-.6,1.1-1,.4-.4.7-.9,1-1.5Z"/>
  <path class="cls-1" d="M77.2,21c.3-.2.5-.2.7.1,0,.1,0,.2,0,.4,0,.1,0,.2-.2.3,0,0-.4.3-1.1.8-.7.5-1.5,1-2.5,1.5-1,.5-2,1-3.1,1.5-1.1.4-2.1.7-3,.7s-.4,0-.6,0c-.2,0-.4,0-.6-.1-.8-.3-1.2-.8-1.4-1.7,0-.5,0-1,0-1.5.1-.6.3-1.1.6-1.6s.6-1,.9-1.5c.4-.5.7-.9,1.1-1.2.5-.4,1-.7,1.4-.7.4,0,.8,0,1,.1.4.1.6.4.6.8,0,.3-.2.6-.4.9s-.6.6-1,.9c-.4.3-.8.5-1.3.8-.5.2-1,.4-1.5.6-.4.9-.5,1.6-.4,2.3,0,.5.4.8.8.9.6.2,1.4.2,2.3,0,.9-.3,1.9-.6,2.9-1.1s1.9-1,2.8-1.5c.9-.5,1.6-1,2.1-1.4ZM68.6,19.2c-.2.2-.4.4-.6.6-.2.2-.4.5-.5.7.7-.3,1.2-.6,1.7-1,.5-.3.7-.6.9-.8,0,0-.1,0-.1,0,0,0,0,0-.1,0-.2,0-.5,0-.6.2-.2.1-.4.2-.5.4Z"/>
  <path class="cls-1" d="M73.5,29.8c0,0-.1,0-.3,0-.2-.1-.3-.3-.2-.7l4.1-7.9c0-.1.2-.2.3-.2.1,0,.3,0,.4,0,.3.1.4.3.2.7l-2.2,4.2c.6-.7,1.4-1.4,2.2-2.2s1.6-1.5,2.5-2.1c.8-.6,1.7-1.2,2.5-1.6.9-.4,1.7-.7,2.4-.7.9,0,1.7.3,2.4.9.2.3.2.5,0,.7,0,0-.2.1-.4.1s-.3,0-.4-.1c-.4-.5-.9-.7-1.6-.7-.7,0-1.5.3-2.3.8s-1.7,1.1-2.5,1.7c-.9.7-1.7,1.4-2.5,2.3-.8.8-1.5,1.6-2.1,2.3-.6.7-1.1,1.3-1.5,1.7-.4.5-.6.7-.6.8-.1.1-.2.2-.4.2Z"/>
  <path class="cls-1" d="M88.9,27.6c-.4,0-.7-.1-.9-.3-.2-.2-.4-.3-.4-.4-.2-.4-.2-.9,0-1.4.2-.6.4-1.2.7-1.7.3-.6.6-1.1,1-1.6.3-.5.6-.8.7-1,.2-.3.4-.3.7,0,.3.2.3.4,0,.7-.4.4-.7.9-1,1.4-.3.5-.6,1-.8,1.4-.2.4-.4.8-.5,1.2-.1.3-.1.6,0,.8,0,.1.3.2.5.2h0c.6,0,1.3-.1,2.1-.4.8-.3,1.5-.6,2.3-1,.8-.4,1.6-.8,2.3-1.3.8-.5,1.4-.9,2-1.4.6-.4,1.1-.8,1.4-1,.4-.3.5-.4.6-.5.1,0,.2,0,.4,0s.2,0,.3.2c.2.3.2.5,0,.7,0,0-.3.2-.7.5-.4.3-.9.7-1.5,1.1-.6.4-1.3.9-2.1,1.4-.8.5-1.6,1-2.4,1.4-.8.4-1.6.8-2.4,1-.8.3-1.6.4-2.2.4h0ZM90.9,19.2c-.1,0-.2-.1-.2-.1,0,0,0-.1,0-.2s0-.1.2-.2c.2-.1.5-.2.9-.3.1,0,.3,0,.3,0,0,0,.1.2.1.3h0c0,0,0,.2,0,.2,0,0-.1.1-.2.2,0,0,0,.1-.1.2h-.1c0,.2-.2.2-.3.2-.2,0-.4-.1-.5-.2Z"/>
  <path class="cls-1" d="M99.6,26.4c-.6,0-1-.1-1.3-.3-.2-.2-.4-.4-.5-.6-.1-.3-.2-.6-.2-1,0-.4.1-.7.3-1.1.2-.4.4-.7.6-1.1.3-.4.5-.7.8-1,.7-.6,1.4-1.1,2.1-1.3.7-.2,1.4-.2,2,.1.1,0,.2.2.3.3,0,.1,0,.3,0,.4-.1.3-.4.4-.7.3-.3-.1-.6-.2-1-.2s-.6.1-.9.3-.5.3-.7.4-.4.3-.4.4c-.6.6-1,1.2-1.2,1.8-.2.6-.3,1-.1,1.3.1.3.5.4,1,.4.5,0,1.1-.3,1.8-.7.7-.5,1.4-1,2.1-1.6.7-.6,1.4-1.3,2.1-2s1.3-1.3,1.8-1.8c.8-.9,1.3-1.4,1.5-1.6.2-.2.5-.2.7,0,.2.1.3.4.2.6-.1.3-.2.5-.4.8-.6,1.1-.9,2.2-.9,3.1s.2,1.6.6,1.9c.4.3,1,.2,1.9-.2.9-.4,2.1-1.3,3.5-2.9.2-.2.4-.3.7,0,.2.2.3.5,0,.7-1,1-1.8,1.8-2.6,2.3-.7.5-1.4.9-1.9,1-.5.2-1,.2-1.4.1-.4,0-.7-.2-.9-.4-.6-.4-.9-1.1-1-1.9-.1-.9,0-1.8.4-2.9-.6.6-1.2,1.2-1.9,2-.7.7-1.4,1.4-2.1,2-.7.6-1.5,1.2-2.2,1.6-.7.4-1.4.7-2,.7h-.2Z"/>
  <path class="cls-1" d="M30.5,47.6c.2-.2.4-.2.7,0,.2.2.2.4,0,.7-.1.1-.6.6-1.4,1.4-.8.8-1.9,1.8-3.2,2.9-1.3,1.2-2.8,2.4-4.4,3.7-1.7,1.3-3.4,2.5-5.2,3.7-1.8,1.1-3.6,2.1-5.5,2.8-1.8.7-3.6,1.1-5.2,1.1s-.3,0-.5,0c-.2,0-.3,0-.5,0-2.5-.3-4.1-1.5-4.8-3.6-.4-1-.5-2.2-.5-3.6s.3-2.8.7-4.3c.4-1.5,1-3.1,1.7-4.7.7-1.6,1.5-3.2,2.4-4.8.9-1.6,1.9-3.1,3-4.6,1.1-1.5,2.2-2.8,3.3-4.1,2.2-2.3,4.2-3.9,6.2-4.9,2-1,3.7-1.2,5.3-.8.7.2,1.3.6,1.8,1.1.5.5.9,1.2,1.1,1.9.1.5.2,1.1.2,1.7,0,.6,0,1.2-.2,1.8-.1.6-.3,1.2-.6,1.7-.3.5-.6,1-.9,1.5,0,0-.2.1-.3.2-.1,0-.3,0-.4-.1,0,0-.1-.2-.2-.3,0-.1,0-.3.1-.4.6-.7,1-1.7,1.3-2.7.2-1.1.2-2.1,0-3-.1-.4-.3-.8-.7-1.3-.3-.5-.9-.8-1.6-1-1.3-.4-2.9-.1-4.7.8-1.8,1-3.7,2.5-5.7,4.6-1.1,1.2-2.2,2.5-3.3,3.9-1,1.4-2,2.9-2.9,4.5-.9,1.5-1.7,3.1-2.4,4.7-.7,1.6-1.2,3.1-1.6,4.6s-.6,2.8-.7,4.1c0,1.3,0,2.4.4,3.3.6,1.7,1.9,2.6,4,2.9,1.5.2,3.2,0,5.1-.8,1.8-.7,3.7-1.6,5.5-2.7,1.8-1.1,3.6-2.4,5.4-3.7,1.7-1.4,3.3-2.6,4.6-3.8,1.3-1.2,2.4-2.2,3.2-3,.8-.8,1.2-1.2,1.3-1.3Z"/>
  <path class="cls-1" d="M29.6,54.3c-.4,0-.9,0-1.3-.3-.9-.4-1.3-1.1-1.2-2.2,0-.4.1-.9.3-1.3.2-.5.5-.9.8-1.4.3-.4.7-.8,1.2-1.2.5-.3,1-.6,1.5-.8,0-.1,0-.3,0-.5,0-.2,0-.3.1-.5.2-.7.5-1.3,1-1.9s1-1.1,1.5-1.6,1.2-.7,1.8-.9c.6-.2,1.3-.2,2,0,.8.3,1.3.8,1.5,1.6.2.9,0,1.9-.5,3-.5,1.2-1.2,2.3-2,3.3.7,0,1.5-.1,2.3-.3.8-.1,1.6-.3,2.4-.6.8-.2,1.6-.5,2.3-.8.8-.3,1.4-.6,2.1-.9.1,0,.2,0,.4,0,.1,0,.2.1.3.2.1.3,0,.5-.2.7-.7.4-1.5.8-2.4,1.1-.9.3-1.8.6-2.7.8-.9.2-1.9.4-2.8.6-.9.1-1.8.2-2.6.2-.3.3-.6.6-.9.9-.3.3-.6.5-.9.8-1.4,1.2-2.8,1.7-4.1,1.7ZM30.8,48.3c-.8.4-1.4.9-1.9,1.6-.5.7-.8,1.4-.8,2,0,.6.1,1,.6,1.2.4.2.7.2,1.2.2.4,0,.8-.1,1.2-.3.4-.2.8-.4,1.1-.6.4-.2.6-.4.9-.6.4-.3.7-.6,1-.9-.3,0-.6,0-.8-.1-.3,0-.5-.1-.7-.2-1-.4-1.6-1.2-1.8-2.3ZM36.4,42.8c-.4,0-.9.1-1.4.3-.5.2-.9.5-1.3.9-.4.4-.7.8-1,1.2-.3.5-.5.9-.7,1.4,0,.2-.1.4-.2.7,0,.3,0,.6,0,.9,0,.3.1.6.3.8.2.3.4.5.8.6.5.2,1.2.3,2.1.3.5-.5.9-1.1,1.3-1.7.4-.6.7-1.1,1-1.7.3-.5.4-1.1.6-1.5.1-.5.1-.9,0-1.3,0-.4-.4-.7-.8-.9-.1,0-.2,0-.4,0h-.4Z"/>
  <path class="cls-1" d="M63.4,47.5c.2-.2.4-.2.7,0,.2.2.2.5,0,.7-3.2,3-5.7,4.4-7.6,4.2-.8,0-1.4-.4-1.8-.8-.4-.4-.8-.9-1.1-1.3-.1-.1-.3-.3-.4-.5-.1-.2-.2-.3-.3-.3-.4,0-.9.1-1.5.6-.6.5-1.2,1-1.8,1.5-.8.7-1.5,1.3-2.3,1.9-.8.6-1.6.9-2.4.9s-.4,0-.5,0c-.4,0-.7-.2-.9-.4-.2-.2-.3-.4-.4-.6-.2-.4-.2-1,0-1.5.1-.6.4-1.2.6-1.7.3-.6.6-1.1.9-1.6.3-.5.6-.8.8-1.1.2-.3.4-.3.7,0,.3.2.3.4,0,.7-.3.4-.5.8-.8,1.2-.3.5-.6.9-.8,1.4-.2.5-.4.9-.5,1.3-.1.4-.1.8,0,1,0,0,0,.2.1.2,0,0,.2.1.4.2.3,0,.7,0,1-.1.4-.1.7-.3,1.1-.6.4-.2.8-.5,1.2-.9.4-.3.8-.6,1.1-1,.7-.6,1.4-1.2,2.1-1.7.7-.5,1.3-.7,1.9-.7.3,0,.6.2.8.4.2.2.4.5.6.8.3.4.6.7.9,1.1.3.3.7.5,1.2.6,1.5.2,3.8-1.2,6.8-4Z"/>
  <path class="cls-1" d="M59.6,56.4c0,0-.1,0-.3,0-.2-.1-.3-.3-.2-.7l4.1-7.9c0-.1.2-.2.3-.2s.3,0,.4,0c.3.1.4.3.2.7l-2.2,4.2c.6-.7,1.4-1.4,2.2-2.2s1.6-1.5,2.5-2.1,1.7-1.2,2.5-1.6c.9-.4,1.7-.7,2.4-.7.9,0,1.7.3,2.4.9.2.3.2.5,0,.7,0,0-.2.1-.4.1s-.3,0-.4-.1c-.4-.5-.9-.7-1.6-.7-.7,0-1.5.3-2.3.8-.8.5-1.7,1.1-2.5,1.7-.9.7-1.7,1.4-2.5,2.3-.8.8-1.5,1.6-2.1,2.3-.6.7-1.1,1.3-1.5,1.7-.4.5-.6.7-.6.8-.1.1-.3.2-.4.2Z"/>
  <path class="cls-1" d="M91.5,37.3c.3.1.4.3.4.6,0,.3-.3.4-.6.4,0,0-.3,0-.7-.1-.4,0-1-.2-1.7-.3-.7-.1-1.5-.3-2.5-.5-1-.2-2-.3-3.2-.5-1.1,1.8-2.3,4-3.6,6.4s-2.7,5-4.1,7.7c-1.4,2.7-2.7,5.5-4,8.3-1.3,2.8-2.4,5.5-3.4,8.1,0,.1,0,.2-.2.2,0,0-.2,0-.3,0h-.2c-.3-.1-.4-.3-.3-.7.9-2.6,2.1-5.2,3.3-8,1.3-2.8,2.6-5.5,4-8.1s2.7-5.2,4.1-7.6c1.3-2.4,2.6-4.6,3.7-6.4-2.1-.3-4.2-.5-6.6-.6-2.3-.1-4.5,0-6.6.1-2.1.2-3.9.6-5.6,1.2-1.6.6-2.8,1.6-3.4,2.8,0,.2-.2.3-.4.3s-.2,0-.2,0c-.1,0-.2-.2-.3-.3,0-.1,0-.3,0-.4.5-.9,1.2-1.7,2.2-2.3,1-.6,2.1-1.1,3.3-1.5,1.3-.4,2.6-.6,4.1-.8,1.5-.1,3-.2,4.6-.2,1.6,0,3.2,0,4.7.2s3.1.3,4.5.5c1-1.7,1.8-3,2.4-4,.6-1,.9-1.5,1-1.5,0-.1.2-.2.3-.2s.3,0,.4,0c.3.2.3.4.2.7,0,0-.3.5-.9,1.4-.5.9-1.3,2.1-2.2,3.7,2.1.3,3.9.6,5.3.9,1.4.3,2.2.5,2.4.5Z"/>
  <path class="cls-1" d="M77.7,56.4s-.1,0-.2,0c-.2,0-.3-.3-.3-.6.3-1,.7-2,1.2-2.9.5-1,.9-1.8,1.4-2.6s.8-1.4,1.2-1.8c.3-.5.5-.7.5-.8,0-.1.2-.2.3-.2.1,0,.3,0,.4,0,.3.2.3.4.1.7-.4.6-.7,1.1-1,1.5-.3.5-.6,1-1,1.6-.4.6-.7,1.3-1,2,.8-.9,1.7-1.8,2.8-3,1.1-1.1,2.1-2.2,3.3-3.1,1.1-1,2.2-1.8,3.2-2.4,1-.6,1.9-.9,2.5-.9.2,0,.4,0,.6.2.1.1.2.2.3.3.3.4.3,1,.2,1.8-.2.8-.5,1.6-.8,2.6,0,.3-.2.6-.3,1s-.2.8-.3,1.1c0,.4-.1.7-.2,1,0,.3,0,.4.2.5.4.2,1,.1,1.7-.2.8-.3,1.6-.7,2.5-1.2.9-.5,1.8-1.1,2.7-1.7.9-.6,1.7-1.3,2.4-1.8,0,0,.2-.1.3-.1.1,0,.2,0,.3.2.2.3.2.5,0,.7-.1.1-.4.3-.8.7-.4.3-1,.7-1.6,1.2-.6.4-1.3.9-2,1.4-.7.5-1.4.9-2.1,1.2-.7.3-1.4.6-2,.7-.6.1-1.2.1-1.6,0-.3-.1-.5-.3-.6-.7-.1-.3-.1-.7,0-1.1,0-.4.2-.9.3-1.4s.3-1.1.5-1.6c.1-.3.2-.7.4-1,.1-.4.2-.7.3-1,0-.3.1-.6.2-.9,0-.3,0-.5,0-.6h0s0,0,0,0c0,0,0,0,0,0-.6,0-1.4.3-2.4,1.1-1,.7-2.2,1.7-3.4,2.8-1.2,1.1-2.5,2.4-3.7,3.7s-2.3,2.6-3.2,3.7c-.1.1-.3.2-.4.2Z"/>
  <path class="cls-1" d="M110.8,47.5c.3-.2.5-.2.7.1,0,.1,0,.2,0,.4,0,.1,0,.2-.2.3,0,0-.4.3-1.1.8-.7.5-1.5,1-2.5,1.5s-2,1-3.1,1.5c-1.1.4-2.1.7-3,.7s-.4,0-.6,0c-.2,0-.4,0-.6-.1-.8-.3-1.2-.8-1.4-1.7,0-.5,0-1,0-1.5.1-.6.3-1.1.6-1.6s.6-1,.9-1.5c.4-.5.7-.9,1.1-1.2.5-.4,1-.7,1.4-.7.4,0,.8,0,1,.1.4.1.6.4.6.8,0,.3-.2.6-.4.9-.3.3-.6.6-1,.9-.4.3-.8.5-1.3.8-.5.2-1,.4-1.5.6-.4.9-.5,1.6-.4,2.3,0,.5.4.8.8.9.6.2,1.4.2,2.3,0s1.9-.6,2.9-1.1c1-.5,1.9-1,2.8-1.5.9-.5,1.6-1,2.1-1.4ZM102.3,45.8c-.2.2-.4.4-.6.6-.2.2-.4.5-.5.7.7-.3,1.2-.6,1.7-1,.5-.3.7-.6.9-.8,0,0-.1,0-.1,0,0,0,0,0-.1,0-.2,0-.5,0-.6.2-.2.1-.4.2-.5.4Z"/>
  <path class="cls-1" d="M122.1,45.5c.2.1.3.3.2.5-.3,1.1-.9,2.7-1.7,4.7-.9,2-1.9,4.2-3.1,6.6.5,0,1.1-.2,1.6-.2s1.1,0,1.7,0c.1,0,.3,0,.4.2s.1.2,0,.4c0,.1,0,.3-.2.4-.1,0-.2.1-.4,0-1.2,0-2.5,0-3.8.4-.9,1.7-1.8,3.3-2.8,5-1,1.6-2,3.1-3,4.5-1,1.4-2,2.5-3,3.5-1,1-1.9,1.6-2.7,1.9-.4.2-.8.3-1.2.3s-.9-.1-1.3-.4c-.6-.4-1-.9-1.1-1.5s0-1.5.2-2.3c.4-1.1,1-2.2,1.9-3.5.9-1.2,2-2.4,3.2-3.5,1.3-1.1,2.7-2.1,4.2-3,1.5-.9,3.2-1.5,4.8-1.9,1-1.9,1.9-3.8,2.7-5.6.8-1.8,1.4-3.3,1.9-4.6h-.1c-1.1,1.1-2.2,2-3.3,3-1.1.9-2.2,1.8-3.2,2.5-1,.7-1.9,1.2-2.8,1.6-.8.4-1.5.4-2.1.2-.7-.3-1.2-.8-1.3-1.5,0-.4,0-.9.1-1.5.2-.5.4-1,.7-1.5.3-.5.6-1,1-1.4.4-.5.7-.8,1-1.1.3-.2.5-.2.7,0,.2.3.2.5,0,.7-.3.3-.6.6-1,1.1-.3.4-.6.8-.8,1.3-.2.4-.4.8-.5,1.3-.1.4-.1.8,0,1.1,0,.4.3.6.7.7.4.2,1.1,0,2-.5.9-.5,1.9-1.1,2.9-1.9,1-.8,2-1.6,3-2.4,1-.8,1.8-1.5,2.3-2.1.4-.3.6-.6.9-.8.2-.2.4-.4.6-.5.2-.1.4-.1.6,0ZM105.1,72.5c.7-.3,1.5-.9,2.4-1.7.9-.9,1.8-1.9,2.7-3.2.9-1.2,1.8-2.6,2.7-4.1.9-1.5,1.8-3.1,2.7-4.7-1.5.5-2.9,1.1-4.3,2-1.4.8-2.6,1.8-3.7,2.8-1.1,1-2.1,2-2.9,3.1-.8,1.1-1.3,2.1-1.6,3.1-.1.5-.2,1-.2,1.5,0,.5.2.9.7,1.2.4.3,1,.3,1.6,0Z"/>
</svg>