<?xml version="1.0" encoding="UTF-8"?>
<svg id="Layer_1" data-name="Layer 1" xmlns="http://www.w3.org/2000/svg" viewBox="0 0 122.39 71.81">
  <defs>
    <style>
      .cls-1 {
        fill: #fff;
        stroke-width: 0px;
      }
    </style>
  </defs>
  <path class="cls-1" d="M18.36,38.04c-1.12,0-2.18-.22-3.19-.66-1.27-.56-2.27-1.4-3.01-2.52-.74-1.12-1.17-2.48-1.28-4.07-.09-1.62.2-3.45.86-5.47.66-2.02,1.76-4.02,3.3-6-1.33-1.18-2.3-2.63-2.92-4.34-.65-1.8-.77-3.67-.35-5.6.41-1.93,1.3-3.67,2.66-5.2,1.59-1.8,3.59-3.02,6-3.67,2.41-.65,5-.66,7.77-.04,2.04.44,3.8,1.28,5.29,2.5,1.49,1.23,2.65,2.77,3.48,4.63.89,2.04,1.3,4.24,1.24,6.6-.06,2.36-.58,4.72-1.55,7.08,1.74-.29,3.49-.65,5.25-1.06,1.76-.41,3.48-.89,5.16-1.42.32-.12.55-.01.66.31.03.15.01.28-.04.4-.06.12-.16.19-.31.22-1.83.59-3.69,1.11-5.58,1.55-1.89.44-3.76.81-5.62,1.11l-.89,1.64c-1.3,2.21-2.66,4.19-4.07,5.93-1.42,1.74-2.85,3.21-4.29,4.41-1.45,1.2-2.89,2.11-4.34,2.75-1.45.63-2.85.95-4.21.95ZM15.79,19.93c-1.45,1.89-2.49,3.79-3.12,5.69-.64,1.9-.89,3.61-.77,5.11.09,1.39.45,2.57,1.08,3.54.63.97,1.5,1.7,2.59,2.17,1.03.44,2.26.6,3.67.49,1.42-.12,2.94-.66,4.58-1.62,1.64-.96,3.36-2.39,5.16-4.29,1.8-1.9,3.62-4.42,5.45-7.55l.53-.93c-2.36.33-4.57.51-6.62.55-2.05.04-3.84-.05-5.38-.29-2.92-.5-5.31-1.46-7.17-2.88ZM16.41,19.14c1.74,1.3,3.98,2.2,6.73,2.7,1.51.24,3.33.32,5.47.24,2.14-.07,4.42-.29,6.84-.64,1.03-2.3,1.6-4.63,1.7-6.99.1-2.36-.27-4.52-1.13-6.46-1.54-3.51-4.22-5.7-8.06-6.55-2.6-.59-5.01-.59-7.24,0-2.23.59-4.08,1.73-5.56,3.41-1.24,1.42-2.04,3-2.41,4.74-.37,1.74-.26,3.44.33,5.09.5,1.48,1.36,2.76,2.57,3.85.86-1,1.82-1.97,2.9-2.9,1.08-.93,2.28-1.81,3.61-2.63.12-.06.24-.07.38-.04.13.03.23.1.29.22.09.12.12.24.09.38-.03.13-.1.23-.22.29-1.3.8-2.46,1.65-3.5,2.55-1.03.9-1.96,1.82-2.79,2.77Z"/>
  <path class="cls-1" d="M75.34,10.5s-.25-.05-.66-.16c-.41-.1-.97-.22-1.68-.35-.71-.13-1.55-.28-2.52-.44-.97-.16-2.04-.32-3.19-.46-1.06,1.83-2.27,3.96-3.63,6.38-1.36,2.42-2.73,4.97-4.12,7.66-1.39,2.69-2.73,5.43-4.03,8.23-1.3,2.8-2.42,5.5-3.36,8.1-.06.24-.21.35-.44.35-.09,0-.15-.01-.18-.04-.33-.09-.43-.29-.31-.62.8-2.21,1.73-4.5,2.79-6.86,1.06-2.36,2.18-4.71,3.34-7.04,1.17-2.33,2.34-4.6,3.52-6.8,1.18-2.2,2.3-4.23,3.36-6.09-.8.74-1.7,1.51-2.7,2.3-1,.8-2.06,1.6-3.16,2.41-1.11.81-2.24,1.63-3.41,2.46-1.17.83-2.32,1.64-3.48,2.44-.97.68-1.93,1.35-2.86,2.01s-1.79,1.29-2.59,1.88c-.06.41-.13.81-.22,1.2-.09.38-.22.74-.4,1.06-.59,1.12-1.31,2.01-2.17,2.68-.86.66-1.58,1-2.17,1-.44,0-.75-.16-.93-.49-.27-.53-.04-1.3.66-2.3.33-.41.86-.94,1.59-1.57.74-.63,1.64-1.33,2.7-2.1,0-.12,0-.23.02-.33.02-.1.02-.21.02-.33.06-.71.16-1.44.29-2.19s.38-1.49.73-2.21c.35-.72.89-1.4,1.59-2.04.71-.63,1.67-1.17,2.88-1.62.32-.12.55-.01.66.31.09.3-.02.52-.31.66-1.03.35-1.85.79-2.46,1.31-.6.52-1.08,1.08-1.42,1.7-.34.62-.57,1.26-.69,1.93-.12.66-.21,1.34-.27,2.01.71-.53,1.46-1.08,2.26-1.66.8-.58,1.62-1.16,2.48-1.75,1.45-1,2.94-2.06,4.49-3.17,1.55-1.11,3.02-2.2,4.43-3.28,1.4-1.08,2.66-2.11,3.78-3.1,1.12-.99,1.98-1.88,2.57-2.68-1.36-.18-2.79-.32-4.29-.44-1.5-.12-3-.18-4.49-.18s-2.94.06-4.34.18c-1.4.12-2.69.34-3.85.66-1.17.33-2.19.77-3.08,1.33-.89.56-1.55,1.25-1.99,2.08-.09.18-.24.27-.44.27-.03,0-.06,0-.09-.02-.03-.01-.07-.02-.13-.02-.12-.06-.2-.15-.24-.29-.04-.13-.04-.27.02-.42.5-.94,1.23-1.73,2.19-2.35.96-.62,2.07-1.11,3.34-1.46,1.27-.35,2.65-.6,4.14-.75,1.49-.15,3.02-.21,4.6-.2,1.58.02,3.16.09,4.74.22,1.58.13,3.08.29,4.49.46.97-1.68,1.76-3,2.37-3.94.61-.94.92-1.45.95-1.5.06-.12.15-.19.29-.22.13-.03.26,0,.38.09.12.06.19.15.22.29s.02.26-.04.38c-.03.03-.32.49-.86,1.39-.54.9-1.28,2.12-2.19,3.65,1.06.15,2.04.3,2.95.46s1.69.31,2.37.44c.68.13,1.22.24,1.64.33.41.09.66.15.75.18.15.03.26.1.33.2.07.1.08.23.02.38-.06.32-.25.46-.58.4ZM44.52,27.68c.06-.15.12-.29.18-.44.06-.15.1-.31.13-.49-.77.59-1.43,1.13-1.99,1.62-.56.49-.96.89-1.2,1.22-.18.24-.3.43-.38.6-.07.16-.12.29-.15.38-.03.12-.04.21-.04.27.06.03.21,0,.46-.11.25-.1.55-.28.89-.53.34-.25.69-.58,1.06-1,.37-.41.72-.92,1.04-1.51Z"/>
  <path class="cls-1" d="M77.15,19.05c.26-.21.5-.16.71.13.06.12.08.24.07.38-.02.13-.08.23-.2.29-.06.06-.43.33-1.11.8-.68.47-1.51.97-2.48,1.51-.97.53-2.01,1.02-3.12,1.46-1.11.44-2.12.66-3.03.66-.24,0-.44-.01-.62-.04-.18-.03-.37-.07-.58-.13-.77-.27-1.24-.84-1.42-1.73-.09-.47-.07-.99.04-1.55.12-.56.3-1.11.55-1.64s.55-1.03.91-1.51c.35-.47.72-.86,1.11-1.15.53-.44,1.01-.69,1.44-.73.43-.04.77,0,1.04.11.38.15.58.43.58.84-.03.3-.18.6-.44.91s-.6.61-1,.89c-.4.28-.85.54-1.35.77-.5.24-1,.43-1.51.58-.35.86-.49,1.62-.4,2.3.09.5.35.81.8.93.62.24,1.39.22,2.32-.04.93-.27,1.88-.64,2.86-1.13s1.9-1,2.77-1.55c.87-.55,1.56-1,2.06-1.35ZM68.61,17.28c-.24.18-.44.38-.62.6-.18.22-.35.45-.53.69.68-.29,1.25-.61,1.7-.95.46-.34.75-.61.86-.82-.06,0-.1,0-.13-.02-.03-.01-.07-.02-.13-.02-.24,0-.45.05-.64.16-.19.1-.36.23-.51.38Z"/>
  <path class="cls-1" d="M73.48,27.9c-.06,0-.15-.03-.27-.09-.24-.12-.29-.34-.18-.66l4.12-7.94c.06-.12.16-.19.29-.22.13-.03.26-.01.38.04.32.12.4.34.22.66l-2.17,4.23c.65-.71,1.38-1.45,2.19-2.23s1.64-1.49,2.48-2.14c.84-.65,1.69-1.19,2.55-1.63.86-.44,1.65-.68,2.39-.71.94-.03,1.74.28,2.39.93.21.26.19.5-.04.71-.09.09-.21.13-.35.13s-.27-.04-.35-.13c-.41-.47-.95-.69-1.59-.66-.71.03-1.48.28-2.32.75s-1.69,1.06-2.55,1.75c-.86.69-1.69,1.45-2.5,2.26-.81.81-1.53,1.56-2.15,2.26-.62.69-1.13,1.28-1.53,1.75-.4.47-.6.72-.6.75-.12.12-.25.18-.4.18Z"/>
  <path class="cls-1" d="M88.88,25.64c-.41-.03-.72-.12-.93-.28-.21-.16-.35-.3-.44-.44-.18-.38-.18-.86,0-1.45.18-.59.42-1.17.73-1.75.31-.58.63-1.11.95-1.59.33-.49.56-.82.71-1,.21-.27.44-.29.71-.09.27.21.29.44.09.71-.35.44-.69.91-1,1.39-.31.49-.58.95-.8,1.39-.22.44-.38.83-.49,1.17-.1.34-.11.6-.02.77.09.12.25.18.49.18h.09c.62,0,1.31-.14,2.08-.42.77-.28,1.55-.62,2.35-1.02.8-.4,1.57-.84,2.32-1.33.75-.49,1.42-.94,2.01-1.35.59-.41,1.06-.76,1.42-1.04.35-.28.54-.44.58-.46.12-.06.24-.09.38-.09s.24.06.33.18c.21.27.18.5-.09.71-.06.03-.29.2-.69.51-.4.31-.9.68-1.5,1.11-.61.43-1.31.89-2.1,1.39-.8.5-1.6.96-2.41,1.37-.81.41-1.62.75-2.44,1.02-.81.27-1.56.4-2.24.4h-.09ZM90.87,17.32c-.15-.06-.22-.1-.22-.13-.06-.03-.09-.1-.09-.22,0-.06.07-.13.22-.22.24-.15.55-.25.93-.31.15-.03.26-.02.33.02.07.04.11.15.11.33v.09l-.09.09c-.06.06-.11.12-.15.18-.04.06-.08.12-.11.18l-.13.13c-.06.03-.16.04-.31.04-.24-.06-.4-.12-.49-.18Z"/>
  <path class="cls-1" d="M99.6,24.49c-.59,0-1.01-.11-1.26-.33-.25-.22-.42-.42-.51-.6-.15-.29-.2-.63-.16-1,.04-.37.15-.74.31-1.11.16-.37.37-.74.62-1.11.25-.37.52-.7.82-1,.68-.65,1.38-1.08,2.1-1.28.72-.21,1.39-.16,2.01.13.15.06.24.16.29.29.04.13.04.26-.02.38-.15.3-.37.38-.66.27-.33-.15-.64-.2-.95-.15s-.61.13-.89.27-.52.28-.73.44-.35.29-.44.38c-.59.59-1,1.18-1.24,1.77-.24.59-.28,1.03-.13,1.33.15.27.49.38,1.02.35.53-.03,1.14-.27,1.82-.73.68-.46,1.37-1,2.08-1.64.71-.63,1.4-1.3,2.08-1.99s1.27-1.31,1.77-1.84c.77-.86,1.28-1.38,1.53-1.57.25-.19.49-.21.73-.07.24.15.3.35.2.62-.1.27-.23.55-.38.84-.59,1.12-.88,2.16-.88,3.12s.21,1.59.62,1.88c.38.27,1.03.21,1.93-.16.9-.37,2.06-1.32,3.48-2.86.21-.24.44-.25.71-.04.24.24.25.47.04.71-.97,1.03-1.83,1.81-2.57,2.32-.74.52-1.38.86-1.93,1.04-.55.18-1,.22-1.37.13-.37-.09-.66-.21-.86-.35-.59-.41-.94-1.05-1.04-1.93-.1-.87.02-1.82.38-2.86-.56.59-1.19,1.25-1.88,1.97-.69.72-1.41,1.4-2.15,2.04-.74.63-1.48,1.17-2.21,1.62-.74.44-1.42.68-2.04.71h-.22Z"/>
  <path class="cls-1" d="M30.47,45.73c.21-.21.44-.21.71,0,.21.21.21.44,0,.71-.12.12-.58.58-1.39,1.39-.81.81-1.87,1.79-3.17,2.94-1.3,1.15-2.78,2.38-4.45,3.7-1.67,1.31-3.41,2.53-5.22,3.65-1.81,1.12-3.64,2.05-5.47,2.79-1.83.74-3.56,1.11-5.18,1.11-.18,0-.35,0-.51-.02-.16-.02-.32-.02-.46-.02-2.45-.27-4.06-1.46-4.83-3.59-.38-1.03-.55-2.22-.49-3.56s.29-2.78.69-4.32c.4-1.53.95-3.11,1.66-4.74.71-1.62,1.52-3.22,2.44-4.8.91-1.58,1.91-3.11,2.99-4.58,1.08-1.48,2.19-2.83,3.34-4.07,2.15-2.3,4.21-3.95,6.18-4.94,1.96-.99,3.74-1.25,5.33-.78.71.21,1.31.57,1.81,1.08.5.52.87,1.16,1.11,1.93.15.53.23,1.1.24,1.7.01.61-.04,1.2-.18,1.79-.13.59-.33,1.16-.58,1.71-.25.55-.55,1.04-.91,1.48-.09.09-.2.14-.33.16-.13.02-.26-.02-.38-.11-.09-.09-.14-.2-.15-.33-.02-.13.02-.26.11-.38.62-.74,1.05-1.65,1.28-2.74.24-1.09.21-2.1-.09-3.01-.12-.41-.35-.85-.69-1.31-.34-.46-.86-.8-1.57-1.04-1.33-.41-2.91-.14-4.74.82-1.83.96-3.73,2.5-5.71,4.63-1.12,1.18-2.21,2.5-3.25,3.94-1.05,1.45-2.01,2.94-2.9,4.47-.89,1.53-1.68,3.09-2.37,4.67-.69,1.58-1.24,3.1-1.64,4.56s-.64,2.83-.71,4.12c-.07,1.28.07,2.4.42,3.34.62,1.68,1.95,2.64,3.98,2.88,1.53.18,3.22-.07,5.07-.75,1.84-.68,3.69-1.58,5.53-2.7,1.84-1.12,3.63-2.36,5.36-3.72,1.73-1.36,3.26-2.63,4.6-3.81,1.34-1.18,2.42-2.18,3.23-2.99.81-.81,1.23-1.23,1.26-1.26Z"/>
  <path class="cls-1" d="M29.63,52.42c-.44,0-.89-.09-1.33-.27-.86-.38-1.25-1.11-1.2-2.17.03-.41.14-.86.33-1.33.19-.47.45-.92.77-1.35.33-.43.72-.81,1.17-1.15.46-.34.95-.6,1.48-.78.03-.15.06-.3.09-.46.03-.16.07-.32.13-.46.21-.68.53-1.33.97-1.95s.95-1.14,1.53-1.57,1.19-.73,1.84-.91c.65-.18,1.31-.18,1.99,0,.83.27,1.31.81,1.46,1.64.18.86.01,1.86-.49,3.01-.5,1.15-1.18,2.26-2.04,3.32.74-.03,1.51-.12,2.32-.27.81-.15,1.62-.33,2.41-.55.8-.22,1.57-.47,2.32-.75.75-.28,1.44-.58,2.06-.91.12-.06.24-.07.38-.04.13.03.23.1.29.22.15.29.07.52-.22.66-.71.41-1.5.77-2.39,1.08-.89.31-1.79.58-2.72.82-.93.24-1.85.42-2.77.55-.92.13-1.77.21-2.57.24-.3.3-.58.58-.86.86-.28.28-.58.54-.91.77-1.42,1.15-2.77,1.73-4.07,1.73ZM30.82,46.44c-.77.35-1.4.89-1.9,1.62-.5.72-.77,1.38-.8,1.97-.06.62.15,1.02.62,1.2.35.18.74.24,1.15.2.41-.04.81-.15,1.2-.31.38-.16.75-.35,1.11-.58.35-.22.65-.44.89-.64.35-.27.69-.56,1.02-.88-.3-.03-.57-.07-.82-.13-.25-.06-.48-.12-.69-.18-1.03-.41-1.62-1.17-1.77-2.26ZM36.36,40.91c-.44,0-.89.11-1.35.33-.46.22-.88.51-1.26.86-.38.35-.72.76-1.02,1.22-.3.46-.53.94-.71,1.44-.06.18-.12.41-.18.69-.06.28-.07.57-.04.86.03.3.12.58.29.84.16.27.44.47.82.62.53.18,1.24.27,2.12.27.47-.53.9-1.08,1.28-1.66.38-.58.7-1.14.95-1.68.25-.55.44-1.06.55-1.55.12-.49.15-.91.09-1.26-.09-.44-.35-.74-.8-.88-.12-.06-.24-.09-.35-.09h-.4Z"/>
  <path class="cls-1" d="M63.45,45.64c.21-.21.44-.19.71.04.24.24.22.47-.04.71-3.22,3.01-5.74,4.43-7.57,4.25-.77-.09-1.36-.35-1.77-.8-.41-.44-.77-.87-1.06-1.28-.15-.15-.29-.31-.42-.49-.13-.18-.24-.28-.33-.31-.41-.06-.91.15-1.48.62-.58.47-1.17.99-1.79,1.55-.77.68-1.55,1.31-2.35,1.9-.8.59-1.59.89-2.39.89-.21,0-.37-.01-.49-.04-.41-.06-.72-.19-.91-.4-.19-.21-.32-.41-.38-.62-.18-.44-.19-.95-.04-1.53.15-.58.35-1.15.62-1.73.27-.58.56-1.11.89-1.59.33-.49.59-.85.8-1.08.21-.27.44-.29.71-.09.27.21.29.44.09.71-.27.35-.55.76-.84,1.22-.29.46-.55.92-.77,1.39-.22.47-.38.92-.49,1.33-.1.41-.11.75-.02,1.02.03.09.07.17.13.24.06.07.19.13.4.16.33.06.66.02,1.02-.11.35-.13.72-.32,1.11-.58.38-.25.77-.54,1.15-.86.38-.32.75-.65,1.11-.97.74-.65,1.44-1.22,2.1-1.73.66-.5,1.31-.72,1.93-.66.32.03.6.16.82.4.22.24.44.5.64.8.27.38.56.74.89,1.06.32.33.74.52,1.24.58,1.5.18,3.78-1.15,6.82-3.98Z"/>
  <path class="cls-1" d="M59.64,54.5c-.06,0-.15-.03-.27-.09-.24-.12-.29-.34-.18-.66l4.12-7.94c.06-.12.16-.19.29-.22s.26-.01.38.04c.32.12.4.34.22.66l-2.17,4.23c.65-.7,1.38-1.45,2.19-2.23s1.64-1.49,2.48-2.14,1.69-1.19,2.55-1.63c.86-.44,1.65-.68,2.39-.71.94-.03,1.74.28,2.39.93.21.26.19.5-.04.71-.09.09-.21.13-.35.13s-.27-.04-.35-.13c-.41-.47-.95-.69-1.59-.66-.71.03-1.48.28-2.32.75-.84.47-1.69,1.06-2.55,1.75-.86.69-1.69,1.45-2.5,2.26-.81.81-1.53,1.57-2.15,2.26-.62.69-1.13,1.28-1.53,1.75-.4.47-.6.72-.6.75-.12.12-.25.18-.4.18Z"/>
  <path class="cls-1" d="M91.47,35.37c.32.12.44.33.35.62-.06.29-.25.41-.58.35-.03,0-.25-.04-.66-.13-.41-.09-.97-.2-1.68-.33-.71-.13-1.55-.29-2.52-.46-.97-.18-2.04-.34-3.19-.49-1.06,1.83-2.27,3.96-3.63,6.38s-2.73,4.98-4.12,7.68c-1.39,2.7-2.73,5.45-4.03,8.26-1.3,2.8-2.42,5.5-3.36,8.1-.03.12-.09.2-.18.24-.09.04-.18.07-.27.07h-.18c-.32-.12-.43-.34-.31-.66.94-2.57,2.05-5.24,3.32-8.01,1.27-2.77,2.59-5.49,3.96-8.15s2.73-5.19,4.07-7.61c1.34-2.42,2.56-4.56,3.65-6.42-2.07-.27-4.25-.46-6.55-.58-2.3-.12-4.49-.08-6.57.11-2.08.19-3.93.61-5.56,1.24-1.62.64-2.76,1.57-3.41,2.81-.09.18-.24.27-.44.27-.09,0-.16-.01-.22-.04-.15-.06-.24-.16-.27-.29-.03-.13-.01-.26.04-.38.5-.94,1.23-1.73,2.19-2.35.96-.62,2.07-1.11,3.34-1.46,1.27-.35,2.65-.6,4.14-.75,1.49-.15,3.03-.21,4.6-.2,1.58.02,3.16.09,4.74.22s3.08.29,4.49.46c.97-1.68,1.76-3,2.37-3.96.6-.96.92-1.45.95-1.48.06-.15.15-.23.29-.24s.26,0,.38.07c.27.18.32.41.18.71-.03.03-.32.49-.86,1.37-.55.89-1.28,2.11-2.19,3.67,2.12.29,3.89.58,5.29.86,1.4.28,2.21.45,2.41.51Z"/>
  <path class="cls-1" d="M77.66,54.5s-.1-.03-.22-.09c-.24-.09-.32-.28-.27-.58.33-1,.72-1.98,1.17-2.94.46-.96.91-1.81,1.35-2.57s.83-1.36,1.15-1.82c.33-.46.5-.71.53-.77.06-.12.15-.18.29-.2.13-.01.26,0,.38.07.29.21.34.44.13.71-.38.56-.72,1.08-1.02,1.55-.29.47-.62,1.02-.97,1.64-.35.62-.69,1.28-1.02,1.99.8-.86,1.73-1.84,2.79-2.97,1.06-1.12,2.15-2.17,3.25-3.14,1.11-.97,2.17-1.79,3.19-2.43,1.02-.65,1.87-.94,2.55-.88.24.03.43.1.58.2.15.1.25.21.31.33.29.44.35,1.05.16,1.81-.19.77-.45,1.62-.77,2.57-.09.3-.2.64-.33,1.04s-.24.77-.33,1.13c-.09.35-.14.67-.16.95-.02.28.04.44.16.46.38.18.95.13,1.7-.15.75-.28,1.57-.68,2.46-1.2.88-.52,1.78-1.1,2.68-1.75.9-.65,1.69-1.25,2.37-1.82.09-.09.2-.12.33-.11.13.02.24.07.33.16.21.27.19.5-.04.71-.12.12-.39.35-.82.69-.43.34-.95.73-1.57,1.17-.62.44-1.29.89-2.01,1.35-.72.46-1.44.86-2.15,1.2-.71.34-1.39.58-2.04.73-.65.15-1.2.13-1.64-.04-.33-.12-.54-.34-.64-.66-.1-.32-.13-.7-.07-1.13.06-.43.17-.9.33-1.42s.33-1.05.51-1.62c.12-.32.24-.66.35-1.02.12-.35.21-.7.29-1.04.07-.34.12-.64.16-.91.03-.27,0-.46-.09-.58h-.04s-.05,0-.07-.02c-.02-.01-.04-.02-.07-.02-.56-.03-1.37.33-2.41,1.06-1.05.74-2.18,1.68-3.41,2.81-1.22,1.14-2.46,2.37-3.7,3.7s-2.32,2.55-3.23,3.67c-.12.12-.25.18-.4.18Z"/>
  <path class="cls-1" d="M110.82,45.64c.26-.21.5-.16.71.13.06.12.08.24.07.38-.02.13-.08.23-.2.29-.06.06-.43.33-1.11.8-.68.47-1.51.97-2.48,1.51s-2.01,1.02-3.12,1.46c-1.11.44-2.12.66-3.03.66-.24,0-.44-.01-.62-.04-.18-.03-.37-.07-.58-.13-.77-.27-1.24-.84-1.42-1.73-.09-.47-.07-.99.04-1.55.12-.56.3-1.11.55-1.64s.55-1.03.91-1.5c.35-.47.72-.86,1.11-1.15.53-.44,1.01-.69,1.44-.73.43-.04.77,0,1.04.11.38.15.58.43.58.84-.03.3-.18.6-.44.91-.27.31-.6.61-1,.89-.4.28-.85.54-1.35.77-.5.24-1,.43-1.51.58-.35.86-.49,1.62-.4,2.3.09.5.35.81.8.93.62.24,1.39.22,2.32-.04s1.88-.64,2.86-1.13c.97-.49,1.9-1,2.77-1.55.87-.55,1.56-1,2.06-1.35ZM102.27,43.87c-.24.18-.44.38-.62.6-.18.22-.35.45-.53.69.68-.29,1.25-.61,1.7-.95.46-.34.75-.61.86-.82-.06,0-.1,0-.13-.02-.03-.01-.07-.02-.13-.02-.24,0-.45.05-.64.16-.19.1-.36.23-.51.38Z"/>
  <path class="cls-1" d="M122.15,43.56c.21.15.28.33.22.53-.3,1.12-.87,2.7-1.73,4.74-.86,2.04-1.89,4.24-3.1,6.6.53-.09,1.07-.16,1.62-.2s1.1-.04,1.66.02c.15,0,.27.05.35.15s.12.23.09.38c0,.15-.05.27-.16.35-.1.09-.23.12-.38.09-1.21-.09-2.48.03-3.81.35-.89,1.68-1.82,3.34-2.81,4.98-.99,1.64-1.99,3.14-2.99,4.51-1,1.37-1.99,2.55-2.97,3.52-.97.97-1.87,1.62-2.7,1.95-.41.18-.81.27-1.2.27-.47,0-.9-.13-1.28-.4-.59-.35-.96-.87-1.11-1.55s-.07-1.46.22-2.35c.35-1.09.98-2.24,1.88-3.45.9-1.21,1.98-2.36,3.23-3.45,1.25-1.09,2.66-2.08,4.21-2.97,1.55-.89,3.17-1.54,4.85-1.95,1.03-1.95,1.95-3.81,2.75-5.6.8-1.79,1.43-3.31,1.9-4.58l-.13.09c-1.09.97-2.19,1.93-3.3,2.88-1.11.94-2.17,1.76-3.19,2.46-1.02.69-1.95,1.22-2.79,1.57-.84.35-1.53.41-2.06.18-.74-.27-1.17-.75-1.28-1.46-.09-.44-.05-.93.11-1.46.16-.53.38-1.05.66-1.55.28-.5.6-.98.95-1.44.35-.46.69-.83,1.02-1.13.27-.21.5-.19.71.04.21.27.19.5-.04.71-.33.3-.65.65-.97,1.06-.32.41-.6.83-.84,1.26-.24.43-.41.85-.53,1.26-.12.41-.15.77-.09,1.06.09.35.31.59.66.71.44.18,1.12.02,2.04-.49.91-.5,1.89-1.14,2.92-1.93,1.03-.78,2.04-1.59,3.01-2.44.97-.84,1.76-1.53,2.35-2.06.35-.29.65-.55.89-.77.24-.22.43-.38.58-.46.18-.12.37-.13.58-.04ZM105.11,70.61c.74-.29,1.55-.88,2.43-1.75.89-.87,1.79-1.93,2.7-3.17.91-1.24,1.83-2.62,2.74-4.14.92-1.52,1.8-3.08,2.66-4.67-1.5.47-2.94,1.13-4.32,1.97-1.37.84-2.62,1.76-3.74,2.77-1.12,1-2.08,2.04-2.88,3.12-.8,1.08-1.34,2.1-1.64,3.08-.15.47-.23.97-.24,1.5-.01.53.21.94.69,1.24.44.29.97.31,1.59.04Z"/>
</svg>