<svg width="25" height="18" xmlns="http://www.w3.org/2000/svg"><path d="M23.1 0H1.5C.6736 0 0 .6736 0 1.5v15c0 .8264.6736 1.5 1.5 1.5h21.6c.8264 0 1.5-.6736 1.5-1.5v-15c0-.8264-.6736-1.5-1.5-1.5zM12.3 10.3236L3.0204 1.8h18.5592L12.3 10.3236zM8.2892 9.0828L1.8 14.8672V3.1236l6.4892 5.9592zM9.622 10.308l1.6344 1.5a1.4892 1.4892 0 0 0 1.0436.4232c.3936 0 .7624-.15 1.0436-.4232l1.6344-1.5 6.6128 5.892H3.0092l6.6128-5.892zm6.6888-1.2236L22.8 3.1236v11.7436l-6.4892-5.7828z" fill="#000" fill-rule="evenodd"/></svg>
